<?xml version="1.0" standalone="no"?>
<!DOCTYPE svg PUBLIC "-//W3C//DTD SVG 20010904//EN"
 "http://www.w3.org/TR/2001/REC-SVG-20010904/DTD/svg10.dtd">
<svg version="1.0" xmlns="http://www.w3.org/2000/svg"
 width="691.000000pt" height="957.000000pt" viewBox="0 0 691.000000 957.000000"
 preserveAspectRatio="xMidYMid meet">

<g transform="translate(0.000000,957.000000) scale(0.100000,-0.100000)"
fill="#000000" stroke="none">
<path d="M4452 9053 l3 -508 1223 -3 1222 -2 0 140 0 140 -405 0 -405 0 0 75
0 75 405 0 405 0 0 295 0 295 -1225 0 -1225 0 2 -507z"/>
<path d="M7 8293 c-4 -3 -7 -1869 -7 -4145 l0 -4138 1250 0 c688 0 1251 1
1252 3 2 1 5 760 8 1687 3 1062 9 1685 15 1684 5 -1 508 -760 1118 -1688
l1110 -1686 622 0 c342 0 825 -3 1073 -7 l452 -6 0 76 0 77 -400 0 -400 0 0
69 0 70 305 193 c167 106 305 196 305 201 0 4 -137 7 -305 7 l-305 0 0 60 0
60 400 0 400 0 0 252 0 253 -24 -36 c-31 -45 -81 -83 -154 -117 -48 -22 -74
-27 -168 -30 -172 -6 -281 34 -374 135 -58 64 -80 123 -80 218 0 103 21 164
79 227 58 64 124 102 212 123 173 40 347 -2 457 -111 l52 -53 0 270 0 269
-400 0 -400 0 0 70 0 70 400 0 400 0 0 220 0 220 -36 -39 c-19 -22 -59 -52
-87 -66 l-52 -26 -12 30 c-7 16 -15 47 -18 68 -6 37 -4 39 37 58 129 60 119
323 -13 327 -53 2 -83 -41 -109 -158 -35 -159 -48 -199 -82 -250 -43 -63 -102
-94 -177 -94 -99 1 -177 54 -223 155 -20 44 -23 66 -23 175 0 118 2 128 29
183 16 32 49 76 74 98 47 44 130 86 141 72 8 -8 33 -114 29 -118 -2 -2 -22
-12 -45 -24 -74 -37 -113 -110 -113 -210 0 -116 43 -181 119 -181 64 0 86 34
126 199 20 79 44 159 54 179 66 128 233 157 337 58 l44 -43 0 270 0 269 -40
-40 c-40 -43 -113 -86 -132 -80 -6 2 -19 32 -28 66 l-17 61 32 11 c83 27 130
142 100 245 -23 80 -79 115 -136 85 -29 -16 -47 -59 -79 -197 -17 -70 -40
-147 -51 -170 -30 -62 -87 -109 -148 -122 -110 -23 -212 28 -266 134 -29 56
-30 64 -30 184 0 109 3 132 22 174 33 71 74 118 135 154 83 50 90 48 104 -22
7 -33 13 -62 14 -65 0 -4 -15 -12 -34 -18 -44 -16 -102 -80 -115 -129 -17 -61
-13 -153 9 -201 36 -79 130 -93 176 -25 12 18 31 76 43 130 47 209 72 257 152
297 98 48 213 25 267 -54 l22 -33 0 237 0 236 -55 0 -55 0 0 210 0 210 -105 0
-105 0 0 -170 0 -170 -60 0 -60 0 0 170 0 170 -120 0 -120 0 0 -220 0 -220
-60 0 -60 0 0 290 0 290 400 0 400 0 0 258 c-1 240 -2 255 -17 227 -83 -159
-287 -176 -392 -34 l-34 46 -159 -73 c-219 -101 -198 -99 -198 -11 l0 73 163
75 162 74 3 108 3 107 -166 0 -165 0 0 65 0 65 400 0 400 0 0 263 0 262 -21
-43 c-74 -149 -287 -174 -399 -46 -53 61 -63 96 -68 242 l-4 132 -154 0 -154
0 0 75 0 75 400 0 400 0 0 140 0 140 -400 0 -400 0 0 70 0 70 287 0 c175 0
283 4 277 9 -5 5 -133 59 -284 119 l-275 110 0 52 0 52 288 117 289 116 -291
3 -291 2 0 65 0 65 400 0 400 0 0 45 0 45 -1222 -2 -1223 -3 -3 -1617 c-1
-890 -5 -1618 -10 -1618 -4 0 -492 729 -1085 1620 l-1078 1620 -1133 0 c-623
0 -1136 -3 -1139 -7z m3429 -3895 l2009 -2842 3 2842 2 2842 135 0 135 0 0
-3110 0 -3110 -134 0 -134 0 -2048 2892 c-1127 1590 -2057 2901 -2066 2912
-16 20 -17 -138 -18 -2886 l0 -2908 -135 0 -135 0 0 3105 0 3105 188 0 189 0
2009 -2842z"/>
<path d="M6605 7895 c-247 -100 -277 -115 -255 -123 14 -6 139 -56 279 -111
140 -56 258 -101 263 -101 4 0 8 101 8 225 0 124 -3 225 -7 225 -5 -1 -134
-52 -288 -115z"/>
<path d="M6530 6830 c0 -112 12 -155 55 -188 33 -26 102 -29 145 -7 49 25 60
60 60 185 l0 110 -130 0 -130 0 0 -100z"/>
<path d="M6557 5984 c-13 -14 -8 -233 7 -268 33 -78 130 -103 186 -48 34 35
42 79 38 217 l-3 100 -111 3 c-60 1 -113 -1 -117 -4z"/>
<path d="M6407 1690 c-119 -30 -190 -107 -190 -205 0 -89 46 -145 150 -186 82
-31 234 -31 315 0 142 55 190 213 95 311 -55 57 -127 83 -236 86 -53 2 -113
-1 -134 -6z"/>
<path d="M6616 459 l-279 -179 281 0 282 0 0 180 c0 99 -1 180 -2 179 -2 0
-129 -81 -282 -180z"/>
</g>
</svg>
